<svg width="203" height="199" viewBox="0 0 203 199" fill="none" xmlns="http://www.w3.org/2000/svg">
<path d="M128.8 44.6961H74.1314C72.8856 44.6976 71.6912 45.1949 70.8103 46.0789C69.9294 46.9629 69.4338 48.1615 69.4323 49.4117V171.342L68.8058 171.534L55.3946 175.656C54.759 175.85 54.0725 175.784 53.4858 175.471C52.899 175.158 52.46 174.624 52.2651 173.986L12.373 43.2216C12.1789 42.5838 12.245 41.8947 12.557 41.3058C12.8689 40.7169 13.4011 40.2764 14.0365 40.081L34.7031 33.7306L94.6163 15.3271L115.283 8.97666C115.597 8.87952 115.928 8.84558 116.255 8.87677C116.583 8.90796 116.901 9.00368 117.192 9.15844C117.483 9.3132 117.74 9.52397 117.949 9.77868C118.159 10.0334 118.316 10.3271 118.412 10.6429L128.609 44.0673L128.8 44.6961Z" fill="#F2F2F2"/>
<path d="M140.731 44.0686L128.441 3.78449C128.237 3.11329 127.902 2.48909 127.457 1.94757C127.012 1.40605 126.466 0.957819 125.848 0.628497C125.23 0.299175 124.554 0.0952095 123.858 0.0282635C123.162 -0.0386825 122.459 0.0327031 121.79 0.238334L92.7344 9.16347L32.8244 27.5702L3.7685 36.4985C2.41871 36.9144 1.28852 37.8508 0.625995 39.1021C-0.0365311 40.3534 -0.177261 41.8174 0.234701 43.1727L42.2382 180.847C42.5728 181.941 43.2481 182.899 44.1649 183.58C45.0816 184.26 46.1917 184.628 47.3321 184.629C47.8599 184.63 48.3847 184.55 48.8889 184.394L68.8068 178.276L69.4333 178.081V177.424L68.8068 177.616L48.7042 183.793C47.5127 184.158 46.2259 184.033 45.1259 183.446C44.0259 182.86 43.2026 181.86 42.8366 180.665L0.836311 42.9872C0.654955 42.3952 0.591748 41.7731 0.650306 41.1566C0.708865 40.54 0.888034 39.9411 1.17757 39.3942C1.4671 38.8472 1.86131 38.3629 2.3376 37.9691C2.8139 37.5752 3.36293 37.2795 3.95327 37.0989L33.0092 28.1706L92.9193 9.76707L121.975 0.838798C122.423 0.701667 122.889 0.631746 123.357 0.631308C124.361 0.633572 125.339 0.958623 126.146 1.55885C126.954 2.15908 127.548 3.00294 127.843 3.96684L140.076 44.0686L140.27 44.6974H140.922L140.731 44.0686Z" fill="#3F3D56"/>
<path d="M38.4325 40.1838C37.8287 40.1833 37.2409 39.9887 36.7554 39.6285C36.2699 39.2683 35.9122 38.7614 35.7348 38.1822L31.6997 24.9559C31.5913 24.6006 31.5537 24.2273 31.589 23.8575C31.6243 23.4876 31.7319 23.1283 31.9056 22.8002C32.0793 22.472 32.3157 22.1815 32.6014 21.945C32.887 21.7086 33.2163 21.5309 33.5703 21.4222L88.687 4.48873C89.402 4.26978 90.1744 4.34445 90.8346 4.69637C91.4948 5.04828 91.9889 5.64867 92.2084 6.36578L96.2435 19.5923C96.4615 20.3098 96.387 21.0848 96.0364 21.7473C95.6857 22.4098 95.0875 22.9057 94.373 23.1261L39.2562 40.0596C38.9893 40.1418 38.7116 40.1836 38.4325 40.1838V40.1838Z" fill="black"/>
<path d="M59.5697 14.1327C63.03 14.1327 65.8351 11.3176 65.8351 7.84514C65.8351 4.37264 63.03 1.55762 59.5697 1.55762C56.1094 1.55762 53.3043 4.37264 53.3043 7.84514C53.3043 11.3176 56.1094 14.1327 59.5697 14.1327Z" fill="black"/>
<path d="M59.5697 11.8266C61.7609 11.8266 63.5372 10.0441 63.5372 7.84516C63.5372 5.64627 61.7609 3.86371 59.5697 3.86371C57.3785 3.86371 55.6022 5.64627 55.6022 7.84516C55.6022 10.0441 57.3785 11.8266 59.5697 11.8266Z" fill="white"/>
<path d="M188.789 183.022H82.9031C82.1971 183.021 81.5203 182.739 81.0211 182.238C80.5219 181.737 80.2411 181.058 80.2403 180.349V53.0271C80.2411 52.3186 80.5219 51.6394 81.0211 51.1384C81.5203 50.6374 82.1971 50.3556 82.9031 50.3549H188.789C189.495 50.3557 190.172 50.6375 190.671 51.1384C191.17 51.6394 191.451 52.3186 191.452 53.0271V180.349C191.451 181.058 191.17 181.737 190.671 182.238C190.172 182.739 189.495 183.021 188.789 183.022V183.022Z" fill="#E6E6E6"/>
<path d="M140.075 44.0673H74.1314C72.7196 44.0693 71.3662 44.633 70.3678 45.6348C69.3695 46.6366 68.8078 47.9948 68.8058 49.4117V177.614L69.4323 177.422V49.4117C69.4339 48.1615 69.9294 46.9629 70.8103 46.0789C71.6913 45.1948 72.8856 44.6975 74.1314 44.696H140.269L140.075 44.0673ZM197.56 44.0673H74.1314C72.7196 44.0693 71.3662 44.633 70.3678 45.6348C69.3695 46.6366 68.8078 47.9948 68.8058 49.4117V193.396C68.8078 194.813 69.3695 196.171 70.3678 197.173C71.3662 198.175 72.7196 198.738 74.1314 198.74H197.56C198.972 198.738 200.326 198.175 201.324 197.173C202.322 196.171 202.884 194.813 202.886 193.396V49.4117C202.884 47.9948 202.322 46.6366 201.324 45.6348C200.326 44.633 198.972 44.0693 197.56 44.0673V44.0673ZM202.259 193.396C202.258 194.646 201.762 195.845 200.881 196.729C200.001 197.613 198.806 198.11 197.56 198.112H74.1314C72.8856 198.11 71.6913 197.613 70.8103 196.729C69.9294 195.845 69.4339 194.646 69.4323 193.396V49.4117C69.4339 48.1615 69.9294 46.9629 70.8103 46.0789C71.6913 45.1948 72.8856 44.6975 74.1314 44.696H197.56C198.806 44.6975 200.001 45.1948 200.881 46.0789C201.762 46.9629 202.258 48.1615 202.259 49.4117V193.396Z" fill="#3F3D56"/>
<path d="M164.667 57.8999H107.025C106.278 57.899 105.561 57.6007 105.032 57.0702C104.504 56.5398 104.206 55.8206 104.206 55.0705V41.238C104.206 40.4878 104.504 39.7686 105.032 39.2382C105.561 38.7078 106.278 38.4094 107.025 38.4086H164.667C165.414 38.4094 166.131 38.7078 166.66 39.2382C167.188 39.7686 167.486 40.4878 167.486 41.238V55.0705C167.486 55.8206 167.188 56.5398 166.66 57.0702C166.131 57.6007 165.414 57.899 164.667 57.8999Z" fill="black"/>
<path d="M135.846 39.3517C139.306 39.3517 142.111 36.5366 142.111 33.0641C142.111 29.5916 139.306 26.7766 135.846 26.7766C132.386 26.7766 129.581 29.5916 129.581 33.0641C129.581 36.5366 132.386 39.3517 135.846 39.3517Z" fill="black"/>
<path d="M135.846 36.8938C137.954 36.8938 139.662 35.1792 139.662 33.0641C139.662 30.949 137.954 29.2344 135.846 29.2344C133.738 29.2344 132.03 30.949 132.03 33.0641C132.03 35.1792 133.738 36.8938 135.846 36.8938Z" fill="white"/>
</svg>
